<?xml version="1.0" encoding="utf-8"?>
<!-- Generator: Adobe Illustrator 16.0.0, SVG Export Plug-In . SVG Version: 6.00 Build 0)  -->
<!DOCTYPE svg PUBLIC "-//W3C//DTD SVG 1.1//EN" "http://www.w3.org/Graphics/SVG/1.1/DTD/svg11.dtd">
<svg version="1.1" id="Layer_1" xmlns="http://www.w3.org/2000/svg" xmlns:xlink="http://www.w3.org/1999/xlink" x="0px" y="0px"
	 width="100px" height="50px" viewBox="0 0 100 50" enable-background="new 0 0 100 50" xml:space="preserve">
<rect x="-61.5" y="-51.5" display="none" fill="#5D499E" stroke="#000000" stroke-miterlimit="10" width="224" height="157"/>
<g>
	<g>
		<path fill="#F6FAFD" d="M15.246,16.412h3.493v8.674c0,1.521,0.229,2.583,0.689,3.185c0.459,0.603,1.125,0.903,1.997,0.903
			c0.871,0,1.548-0.301,2.032-0.903c0.483-0.602,0.725-1.663,0.725-3.185v-8.674h3.375v8.317c0,2.599-0.519,4.491-1.557,5.68
			s-2.562,1.782-4.574,1.782c-2.012,0-3.545-0.594-4.599-1.782s-1.58-3.081-1.58-5.68V16.412z"/>
		<path fill="#F6FAFD" d="M44.665,35.637c-0.285,0.143-0.662,0.262-1.128,0.356c-0.468,0.096-1.002,0.143-1.604,0.143
			c-1.648,0-3.038-0.38-4.171-1.141c-1.133-0.76-1.977-1.75-2.531-2.97c-0.824-0.175-1.572-0.479-2.246-0.915
			c-0.674-0.436-1.248-0.994-1.723-1.676c-0.475-0.681-0.84-1.469-1.093-2.364c-0.254-0.895-0.38-1.889-0.38-2.982
			c0-1.267,0.17-2.396,0.511-3.386c0.341-0.99,0.82-1.822,1.438-2.495c0.618-0.673,1.358-1.188,2.222-1.545s1.818-0.535,2.864-0.535
			c1.045,0,2,0.178,2.863,0.535s1.604,0.875,2.222,1.557c0.618,0.682,1.097,1.517,1.438,2.507s0.511,2.111,0.511,3.362
			c0,2.092-0.444,3.811-1.331,5.157s-2.083,2.233-3.588,2.661c0.364,0.538,0.855,0.915,1.474,1.129
			c0.618,0.214,1.259,0.32,1.925,0.32c0.333,0,0.646-0.027,0.938-0.083s0.55-0.123,0.772-0.202L44.665,35.637z M33.377,24.088
			c0,1.568,0.309,2.809,0.927,3.719c0.618,0.911,1.458,1.367,2.519,1.367c1.061,0,1.901-0.456,2.519-1.367
			c0.618-0.91,0.927-2.15,0.927-3.719c0-1.552-0.309-2.764-0.927-3.636c-0.618-0.871-1.458-1.307-2.519-1.307
			c-1.062,0-1.901,0.436-2.519,1.307C33.687,21.324,33.377,22.536,33.377,24.088z"/>
		<path fill="#F6FAFD" d="M46.162,16.412h4.396c1.188,0,2.258,0.151,3.209,0.452c0.949,0.301,1.766,0.765,2.447,1.39
			c0.68,0.626,1.203,1.422,1.568,2.388c0.363,0.967,0.547,2.115,0.547,3.446c0,1.331-0.184,2.487-0.547,3.47
			c-0.365,0.982-0.879,1.794-1.545,2.436s-1.461,1.121-2.389,1.438c-0.926,0.317-1.961,0.476-3.101,0.476h-4.586V16.412z
			 M50.345,29.078c0.649,0,1.243-0.087,1.782-0.261c0.539-0.175,1.002-0.456,1.391-0.844c0.387-0.389,0.689-0.899,0.902-1.533
			c0.215-0.633,0.32-1.417,0.32-2.353c0-0.918-0.105-1.691-0.32-2.317c-0.213-0.625-0.516-1.125-0.902-1.497
			c-0.389-0.372-0.852-0.638-1.391-0.796s-1.133-0.238-1.782-0.238h-0.666v9.838H50.345z"/>
		<path fill="#F6FAFD" d="M60.492,20.12h2.852l0.237,2.067h0.095c0.428-0.808,0.942-1.402,1.545-1.782
			c0.603-0.38,1.204-0.57,1.807-0.57c0.332,0,0.605,0.02,0.819,0.059c0.214,0.04,0.408,0.099,0.582,0.178l-0.57,3.018
			c-0.222-0.063-0.428-0.111-0.617-0.143c-0.19-0.032-0.412-0.047-0.666-0.047c-0.443,0-0.907,0.158-1.39,0.475
			c-0.483,0.317-0.884,0.879-1.2,1.688v6.844h-3.493V20.12z"/>
		<path fill="#F6FAFD" d="M68.833,28.627c0-1.235,0.522-2.202,1.568-2.899c1.045-0.697,2.732-1.164,5.062-1.402
			c-0.032-0.523-0.19-0.939-0.476-1.248c-0.285-0.309-0.744-0.463-1.378-0.463c-0.508,0-1.015,0.095-1.521,0.285
			c-0.507,0.19-1.045,0.451-1.615,0.784l-1.236-2.305c0.761-0.459,1.557-0.832,2.389-1.117s1.715-0.428,2.649-0.428
			c1.521,0,2.682,0.432,3.481,1.295c0.8,0.864,1.2,2.207,1.2,4.028v6.749h-2.852l-0.262-1.212h-0.071
			c-0.507,0.443-1.042,0.805-1.604,1.081c-0.562,0.277-1.177,0.416-1.842,0.416c-0.539,0-1.022-0.092-1.45-0.273
			s-0.792-0.436-1.093-0.761c-0.301-0.324-0.534-0.7-0.701-1.128C68.916,29.602,68.833,29.134,68.833,28.627z M72.159,28.365
			c0,0.381,0.123,0.662,0.369,0.844c0.245,0.183,0.573,0.273,0.986,0.273c0.411,0,0.76-0.087,1.045-0.262
			c0.285-0.174,0.586-0.419,0.903-0.736v-2.067c-1.252,0.175-2.115,0.428-2.591,0.761C72.397,27.51,72.159,27.906,72.159,28.365z"/>
		<path fill="#F6FAFD" d="M79.669,20.12h3.47l1.141,5.465c0.095,0.587,0.182,1.165,0.262,1.735c0.078,0.57,0.166,1.156,0.261,1.758
			h0.096c0.11-0.602,0.217-1.195,0.32-1.782c0.103-0.586,0.226-1.156,0.368-1.711l1.308-5.465h3.018l1.331,5.465
			c0.143,0.587,0.269,1.165,0.38,1.735c0.11,0.57,0.229,1.156,0.356,1.758h0.095c0.111-0.602,0.202-1.188,0.273-1.758
			s0.162-1.148,0.273-1.735l1.117-5.465h3.231l-2.828,11.787h-4.087l-1.069-4.705c-0.127-0.555-0.237-1.109-0.333-1.664
			c-0.095-0.554-0.198-1.148-0.309-1.782h-0.095c-0.111,0.634-0.211,1.228-0.298,1.782s-0.186,1.109-0.297,1.664l-1.045,4.705
			h-3.993L79.669,20.12z"/>
	</g>
	<path id="pen_2_" fill="#F6FAFD" d="M7.332,15.966c-1.179,0.001-2.292,0.441-3.057,1.207c-0.645,0.646-1,1.479-1.001,2.347
		l0.013,3.503c0,0.011-0.003,0.02-0.003,0.031c0,0.005,0.003,0.011,0.003,0.017h0.001l0.028,7.435
		c-0.001,0.341,0.086,0.677,0.248,0.976l2.208,3.892c0.007,0.01,0.192,0.304,0.314,0.426c0.693,0.692,1.817,0.692,2.511-0.002
		c0.138-0.138,0.34-0.472,0.348-0.481l2.24-3.839c0.163-0.301,0.248-0.635,0.248-0.976l-0.043-10.987
		C11.388,17.521,9.606,15.964,7.332,15.966z M10.141,28.37c-0.354-0.295-0.762-0.521-1.2-0.685l0-6.78
		c0.862,0.448,1.441,1.239,1.441,2.148c0,0.006-0.002,0.011-0.002,0.016h0.009l0.022,5.562C10.323,28.543,10.24,28.452,10.141,28.37
		z M8.433,27.538c-0.354-0.086-0.717-0.146-1.094-0.146c-0.438,0-0.86,0.081-1.267,0.197v-6.834
		c0.387-0.149,0.813-0.237,1.267-0.237c0.387,0,0.754,0.067,1.095,0.176L8.433,27.538z M5.565,27.758
		c-0.466,0.199-0.89,0.471-1.243,0.814l-0.021-5.544c0.011-0.835,0.508-1.569,1.265-2.025V27.758z M8.072,34.796
		c-0.03,0.048-0.121,0.2-0.198,0.289c-0.298,0.292-0.777,0.29-1.071-0.004c-0.056-0.066-0.136-0.193-0.166-0.239l-0.99-1.745
		c0.398-0.419,0.999-0.702,1.693-0.701c0.704-0.001,1.319,0.283,1.714,0.716L8.072,34.796z M9.315,32.664
		c-0.489-0.473-1.186-0.775-1.975-0.775c-0.747,0-1.452,0.273-1.959,0.74l-0.936-1.649c-0.061-0.11-0.094-0.248-0.105-0.386
		c0.204-1.234,1.462-2.188,2.999-2.188c1.626,0,2.941,1.064,3.026,2.4c-0.02,0.064-0.041,0.127-0.072,0.186L9.315,32.664z
		 M10.375,19.514l0.005,1.212c-0.081-0.081-0.149-0.169-0.239-0.244c-0.756-0.63-1.752-0.978-2.801-0.978
		c-1.168,0-2.278,0.439-3.047,1.203l-0.004-1.192c0-0.593,0.25-1.173,0.705-1.626c0.577-0.578,1.429-0.909,2.34-0.91
		c0.855-0.001,1.64,0.275,2.213,0.775C10.081,18.223,10.375,18.847,10.375,19.514z"/>
</g>
</svg>
